<svg xmlns="http://www.w3.org/2000/svg" width="180.5" height="56.155" viewBox="0 0 180.5 56.155">
  <g id="logo-vnpay" transform="translate(0.5)">
    <rect id="boundingbox" width="180" height="56" fill="#fff" opacity="0"/>
    <g id="Group_10288" data-name="Group 10288" transform="translate(0)">
      <path id="Exclusion_1" data-name="Exclusion 1" d="M307.746,226.819h0a.273.273,0,0,0-.059-.077l-3.511-3.541a11.546,11.546,0,0,1,16.39-16.266.7.7,0,0,0,.5.206.681.681,0,0,0,.481-.195.691.691,0,0,0,.209-.493.67.67,0,0,0-.2-.479l-.01-.011A12.924,12.924,0,1,0,303.2,224.172l2.578,2.6-.052,0a10.555,10.555,0,0,1-4.063-1.352,7.425,7.425,0,0,1-1.556-1.1s0,0-.007,0c-.089-.086-.185-.182-.3-.3l-9.459-9.459-.2-.2a3.585,3.585,0,0,1-.935-2.411c0-.116,0-.217.013-.31a3.716,3.716,0,0,1,.068-.447c.014-.058.027-.114.04-.168.007-.024.013-.047.02-.07a3.658,3.658,0,0,1,.656-1.241c.081-.1.165-.192.256-.285l.168-.166L300.5,199.175l6.11-6.106a3.634,3.634,0,0,1,4.959-.175l16.911,16.91-1.567,1.567-1.708-1.718a.679.679,0,0,0-.487-.2.69.69,0,0,0-.487.2.689.689,0,0,0,0,.975l1.712,1.722-1.91,1.91-5.377-5.421a8.775,8.775,0,0,0-6.265-2.619,8.9,8.9,0,0,0-2.751.437.689.689,0,1,0,.424,1.31,7.528,7.528,0,0,1,2.324-.369,7.408,7.408,0,0,1,5.288,2.211l5.381,5.42-.028.028-1.651,1.654-.232.232-5.387-5.431a4.768,4.768,0,0,0-6.77,6.715l3.478,3.5a.689.689,0,0,0,.49.2.689.689,0,0,0,.488-1.175l-3.474-3.5a3.386,3.386,0,0,1,2.4-5.773,3.358,3.358,0,0,1,2.4,1l5.39,5.433-.023.025-1.651,1.651-.232.232-5.4-5.441a.679.679,0,0,0-.487-.2.689.689,0,0,0-.691.69.68.68,0,0,0,.2.485l5.4,5.444.079-.08-.1.107-2.437,2.432-.256.258A10.727,10.727,0,0,1,312.2,225.5l-5.131-5.172a7.465,7.465,0,0,1-.861-9.482.693.693,0,0,0-.178-.962.682.682,0,0,0-.389-.121.691.691,0,0,0-.57.3,8.856,8.856,0,0,0,1.02,11.238l4.781,4.821-.01.005-.023.009a10.6,10.6,0,0,1-3.095.683Z" transform="translate(-289.199 -191)" fill="#fff" stroke="rgba(0,0,0,0)" stroke-miterlimit="10" stroke-width="1" opacity="0.8"/>
      <path id="Union_1" data-name="Union 1" d="M19.6,45.023l-.007-.007c-.091-.077-.178-.154-.265-.235l-2.048-2.048-5.753-5.757L9.6,35.055l-.269-.269a5.914,5.914,0,0,0,.945.074h.01l.256,0a6.61,6.61,0,0,0,1.092-.131,7.852,7.852,0,0,0,1.769-.6,10.071,10.071,0,0,0,2.643-1.856c.175-.171.306-.316.359-.38l4.426-4.348.017.02,15.216-14.97.081-.1L43.54,5.222A2.92,2.92,0,0,1,47.218,4.9L48.97,6.652a0,0,0,0,1,0,0l9.5,9.5a3.357,3.357,0,0,1,0,4.778l-.256.259L46.882,32.705,34.975,44.794a10.476,10.476,0,0,1-1.2,1.033c-.013.013-.03.026-.047.04-.057.04-.114.084-.175.124-.007.007-.013.011-.02.017A10.98,10.98,0,0,1,19.6,45.023ZM10.286,33.889a5.708,5.708,0,0,1-2.381-.532L5.969,31.424l-.475-.471-.08-.084-.9-.9L.227,25.635l.075.073a7.327,7.327,0,0,0,1.563,1.1,10.728,10.728,0,0,0,9.181.72,10.945,10.945,0,0,0,1.331-.619,10.717,10.717,0,0,0,2.394-1.8l.256-.255v0l2.435-2.431h0l.255-.259.719-.719.256-.255,1.651-1.652,1.231-1.23,1.651-1.654.259-.256L33.956,5.922l4.318-4.678.027-.027.232-.229a3.377,3.377,0,0,1,4.775,0l2.364,2.364h0l.077.077a3.869,3.869,0,0,0-2.892,1.1l-8,7.869-.08.1-13.921,13.7-.02-.017L15.71,31.216l-.034.04c-.013.017-.124.141-.309.323A9.111,9.111,0,0,1,12.99,33.25a6.927,6.927,0,0,1-1.547.524,6.208,6.208,0,0,1-.924.114ZM0,25.4l.227.23Q.113,25.523,0,25.4Z" transform="translate(10.596 7.609)" fill="#fff" stroke="rgba(0,0,0,0)" stroke-miterlimit="10" stroke-width="1"/>
    </g>
    <g id="Group_10289" data-name="Group 10289">
      <path id="Path_8269" data-name="Path 8269" d="M253.193,38.861,245.157,27.34l-.818-.75h7.921l5.369,8.71.431-.352,3.245-4.823a2.54,2.54,0,0,0-.447-3.535h7.484l-8.651,12.269,0,8.9,1.526,1.813h-9.3l1.311-1.786c0-2.967-.108-5.967-.031-8.926M231.373,26.59a3.337,3.337,0,0,1,.9,1.974,2.805,2.805,0,0,1-.163,1.366l-5.977,17.331a6.386,6.386,0,0,1-1.7,2.264h6.523a2.69,2.69,0,0,1-.906-1.549,2.553,2.553,0,0,1,.023-1.3L231.4,42.56h7.59l1.183,3.172a3.64,3.64,0,0,1,.225,1,2.984,2.984,0,0,1-1.216,2.848h10.226a9.418,9.418,0,0,1-2.444-2.965L239.5,26.59Zm6.507,12.985h-5.43l2.633-7.5ZM210.7,26.61l5.138-.02h6.239a6.258,6.258,0,0,1,6.24,6.24V33.6a6.253,6.253,0,0,1-6.24,6.153l-2.845.087c2.288-1.052,3.246-3.711,2.96-6.1-.229-1.921-1.219-3.769-2.868-3.8l-1.04-.022v17.1a1.218,1.218,0,0,0,.233.764,11.864,11.864,0,0,0,1.035,1.4l.3.362H211c.134-.163.264-.328.388-.5a5.693,5.693,0,0,0,.684-1.185,1.86,1.86,0,0,0,.171-.78V28.7c-.035-.958-.987-1.5-1.546-2.088" transform="translate(-88.343 -10.148)" fill="#fff" fill-rule="evenodd"/>
      <path id="Path_8270" data-name="Path 8270" d="M128.071,26.414h7.144l6,17.193L146.3,29.366a1.656,1.656,0,0,0-.2-1.209c-.282-.578-.582-1.139-.864-1.717h5.336c-.316,1.163-.783,2.438-1.186,3.61l-6.891,20.023a11.24,11.24,0,0,1-5.6-2.656,9.778,9.778,0,0,1-2.256-4.039l-5.761-15.258a14.8,14.8,0,0,0-.805-1.7m28.524,8.057V46.756c0,.5.115.588.422.988l1.408,1.834H151.7l1.136-1.734a1.824,1.824,0,0,0,.418-1.192V29.488l-1.89-3.074h6.969l11.283,14.533V29.366a1.852,1.852,0,0,0-.4-1.209c-.379-.578-.773-1.139-1.152-1.717h6.718l-1.4,1.834c-.307.4-.422.489-.422.987v20.9c-2.544-.335-4.914-.957-7.021-3.65Z" transform="translate(-53.699 -10.076)" fill="#fff" fill-rule="evenodd"/>
    </g>
  </g>
</svg>